<svg width="180" height="202" viewBox="0 0 180 202" fill="none" xmlns="http://www.w3.org/2000/svg">
<path d="M157.25 83.627C165.396 83.627 172 77.0232 172 68.877C172 60.7308 165.396 54.127 157.25 54.127C149.104 54.127 142.5 60.7308 142.5 68.877C142.5 77.0232 149.104 83.627 157.25 83.627Z" fill="white"/>
<path d="M105.113 139.544L98.0391 157.419L75.2151 172.336C73.0471 173.568 71.5811 175.895 71.5811 178.566C71.5811 182.524 74.7891 185.733 78.7481 185.733C80.2831 185.733 81.7031 185.246 82.8691 184.423C86.6301 182.052 105.22 170.339 108.364 168.543C111.864 166.543 112.489 163.418 112.489 163.418L117.364 147.418C117.364 147.418 117.364 147.418 111.614 144.793C105.864 142.168 105.113 139.544 105.113 139.544Z" fill="white"/>
<path d="M155.321 141.462C155.321 141.462 154.163 137.628 150.742 136.295C147.321 134.962 132.655 128.545 132.655 128.545L148.071 102.961C148.071 102.961 151.905 93.961 147.738 89.544C143.571 85.127 133.988 79.794 133.988 79.794H126.467L142.266 52.993C145.62 47.307 143.709 39.912 138.024 36.561L88.6331 7.447C82.9471 4.095 75.5541 6.005 72.2021 11.691L25.1441 91.519C21.7931 97.204 23.7021 104.599 29.3881 107.951L78.7781 137.064C84.4641 140.416 91.8591 138.505 95.2101 132.822L118.144 93.919H126.24L111.49 120.128C111.49 120.128 106.356 129.342 111.156 134.378C115.365 138.794 123.823 141.294 123.823 141.294L141.073 147.795L146.174 179.086L146.183 179.085C146.732 182.498 149.682 185.108 153.25 185.108C157.208 185.108 160.416 181.899 160.416 177.941C160.416 177.752 160.402 177.566 160.388 177.381L160.416 177.377L155.321 141.462ZM33.9581 100.198C32.5571 99.372 32.0711 97.49 32.8971 96.09L79.9561 16.261C80.7821 14.86 82.6631 14.373 84.0631 15.199L95.5841 21.991L45.4801 106.989L33.9581 100.198ZM87.4561 128.252C86.6301 129.652 84.7491 130.139 83.3491 129.313L53.2331 111.559L103.34 26.563L133.453 44.316C134.855 45.142 135.34 47.023 134.515 48.423L116.022 79.795H107.239L87.3231 94.222C86.8811 94.474 86.4701 94.775 86.0931 95.113L86.0621 95.135L86.0641 95.138C84.6191 96.45 83.7061 98.336 83.7061 100.442C83.7061 104.4 86.9141 107.609 90.8731 107.609C92.4211 107.609 93.8511 107.113 95.0221 106.278L95.0241 106.281L95.0951 106.223C95.2771 106.09 95.4511 105.95 95.6191 105.8L105.279 98.016L87.4561 128.252Z" fill="white"/>
<path d="M65.2189 5.94302L18.1609 85.772C14.8099 91.457 16.7189 98.852 22.4049 102.204L71.7949 131.317C77.4809 134.669 84.8759 132.758 88.2269 127.075L135.284 47.246C138.638 41.56 136.727 34.165 131.042 30.814L81.6499 1.70002C75.9649 -1.65198 68.5709 0.258023 65.2189 5.94302ZM25.9139 90.343L72.9729 10.514C73.7989 9.11302 75.6799 8.62602 77.0799 9.45202L88.6009 16.244L38.4959 101.242L26.9739 94.451C25.5739 93.625 25.0879 91.743 25.9139 90.343ZM127.531 42.676L80.4719 122.505C79.6459 123.905 77.7649 124.392 76.3649 123.566L46.2489 105.812L96.3549 20.816L126.468 38.569C127.871 39.394 128.355 41.275 127.531 42.676Z" fill="#F0C42E"/>
<path d="M151.25 77.833C159.396 77.833 166 71.2292 166 63.083C166 54.9368 159.396 48.333 151.25 48.333C143.104 48.333 136.5 54.9368 136.5 63.083C136.5 71.2292 143.104 77.833 151.25 77.833Z" fill="#3A3A3A"/>
<path d="M97.875 133.75L90.801 151.625L67.976 166.542C65.808 167.774 64.342 170.101 64.342 172.772C64.342 176.73 67.55 179.939 71.509 179.939C73.044 179.939 74.464 179.452 75.63 178.629C79.391 176.258 97.981 164.545 101.125 162.749C104.625 160.749 105.25 157.624 105.25 157.624L110.125 141.624C110.125 141.624 110.125 141.624 104.375 138.999C98.625 136.374 97.875 133.75 97.875 133.75Z" fill="#3A3A3A"/>
<path d="M148.083 135.668C148.083 135.668 146.925 131.834 143.504 130.501C140.083 129.168 125.417 122.751 125.417 122.751L140.833 97.167C140.833 97.167 144.667 88.167 140.5 83.75C136.333 79.333 126.75 74 126.75 74H100L80.085 88.427C79.643 88.68 79.232 88.98 78.855 89.318L78.824 89.34L78.826 89.343C77.381 90.654 76.468 92.541 76.468 94.646C76.468 98.604 79.676 101.813 83.635 101.813C85.183 101.813 86.613 101.317 87.784 100.482L87.786 100.485L87.857 100.427C88.039 100.294 88.214 100.154 88.382 100.004L103.125 88.123H119L104.25 114.332C104.25 114.332 99.116 123.546 103.916 128.582C108.125 132.998 116.583 135.498 116.583 135.498L133.833 141.999L138.934 173.29L138.943 173.289C139.492 176.702 142.442 179.312 146.01 179.312C149.968 179.312 153.176 176.103 153.176 172.145C153.176 171.956 153.162 171.77 153.148 171.585L153.176 171.581L148.083 135.668Z" fill="#3A3A3A"/>
</svg>
