<svg width="180" height="202" viewBox="0 0 180 202" fill="none" xmlns="http://www.w3.org/2000/svg">
<g clip-path="url(#clip0)">
<path d="M86.6941 179.636C86.5901 179.506 76.1991 166.64 74.0851 163.876C72.7641 162.149 70.7781 161.198 68.4921 161.198C65.9321 161.198 63.6561 162.368 62.9801 162.751L57.4941 165.494C55.7211 165.015 51.9071 163.544 48.2141 159.226C44.9301 155.387 44.9531 150.24 45.1281 148.127L51.0211 142.234C54.1141 139.517 53.4731 135.718 52.2671 133.803L52.0481 133.492C52.0481 133.492 39.1861 117.271 37.3821 114.994C36.3931 113.745 34.9071 113.056 33.1981 113.056C30.3491 113.056 27.3191 115.031 26.4421 115.648C15.5571 123.397 14.8561 130.21 14.8111 130.961L14.7871 131.375L14.8611 131.784C21.2731 167.51 40.8871 182.921 50.3141 190.327C51.4621 191.228 52.4541 192.008 53.1681 192.633C59.7311 198.38 66.9301 199 69.7211 199C72.0961 198.999 74.2011 198.595 75.8101 197.829C80.1761 195.751 85.2351 189.819 86.6821 188.051C89.1831 184.992 87.9651 181.452 86.8501 179.843L86.6941 179.636ZM72.8011 191.509C72.3021 191.746 71.2311 192 69.7201 192C68.1601 192 62.6881 191.666 57.7761 187.368C56.9221 186.621 55.8631 185.789 54.6371 184.825C45.9431 177.995 27.9081 163.824 21.8571 131.141C22.1461 130.162 23.6861 126.203 30.4771 121.37C31.1291 120.917 31.9851 120.466 32.5961 120.228C35.4271 123.8 44.0061 134.62 46.0981 137.258L38.5701 144.785L38.3671 145.84C38.2861 146.262 36.4561 156.249 42.8941 163.777C49.1801 171.126 56.1441 172.444 57.4771 172.633L58.5591 172.787L66.2031 168.964L66.4211 168.846C66.7021 168.679 67.7561 168.198 68.4921 168.198C68.5281 168.198 68.5571 168.199 68.5801 168.201C70.7291 171.001 79.6851 182.098 81.0801 183.825C81.0811 183.829 81.0821 183.832 81.0841 183.835C78.5221 186.93 74.9111 190.504 72.8011 191.509Z" fill="white"/>
<path d="M146.85 70.824C152.362 65.647 154.006 58.849 151.883 50.041C151.676 49.185 151.035 48.5 150.194 48.239C149.352 47.977 148.434 48.179 147.78 48.769L139.559 56.172C138.121 55.377 135.883 53.721 135.094 50.842L141.897 44.113C142.844 43.175 142.889 41.66 142.001 40.667L141.815 40.46C141.622 40.244 141.393 40.064 141.137 39.927C140.977 39.841 137.149 37.811 132.313 37.811C127.604 37.811 123.454 39.732 120.311 43.367C114.311 50.305 115.754 58.409 116.768 61.838L113.28 65.326L102.996 56.09L107.713 52.824L87.6712 39.1L77.0702 49.703L90.7942 69.744L94.0602 65.027L103.297 75.309L100.002 78.603C98.5022 78.125 96.1192 77.551 93.3392 77.551C87.9102 77.551 83.1032 79.725 79.3772 83.91C79.1062 84.239 72.7782 92.075 76.6262 102.531C76.9102 103.304 77.5572 103.887 78.3552 104.091C79.1512 104.294 80.0002 104.092 80.6192 103.55L88.9142 96.291C90.2372 96.858 92.5362 98.371 93.5732 102.216L86.1892 109.732C85.5552 110.377 85.3192 111.314 85.5722 112.182C85.8252 113.05 86.5262 113.714 87.4072 113.919C87.5172 113.944 90.1312 114.542 93.5822 114.542C100.422 114.542 105.694 112.271 108.827 107.975C112.19 103.362 112.921 98.542 112.821 94.887L129.038 111.104L129.21 111.262C130.731 112.522 133.528 113.987 136.661 113.987C138.888 113.987 141.286 113.246 143.513 111.163L149.031 105.647L149.133 105.543C154.145 100.185 151.391 93.845 149.233 91.241L132.288 74.282C133.315 74.388 134.436 74.463 135.61 74.463C140.498 74.462 144.279 73.238 146.85 70.824ZM93.5512 56.978L90.8172 60.927L83.5412 50.302L88.2722 45.57L98.8972 52.846L94.9472 55.58L109.739 68.866L105.645 72.959L106.836 71.767L93.5512 56.978ZM107.113 90.502C107.222 90.815 109.728 98.248 104.785 105.029C102.015 108.827 97.0372 109.555 93.3852 109.541L98.0882 104.754C98.6542 104.178 98.9082 103.363 98.7682 102.567C96.9772 92.42 89.0232 91.083 88.6852 91.031C87.9562 90.921 87.2142 91.135 86.6582 91.62L80.4542 97.048C79.9322 91.488 82.8672 87.559 83.2132 87.116C85.9342 84.086 89.3402 82.55 93.3382 82.55C96.8532 82.55 99.5692 83.761 99.5872 83.77C100.54 84.209 101.663 84.011 102.405 83.269L121.405 64.269C122.13 63.545 122.339 62.453 121.932 61.513C121.897 61.43 118.438 53.173 124.09 46.637C126.285 44.098 129.051 42.811 132.311 42.811C133.541 42.811 134.694 42.994 135.676 43.232L130.629 48.225C130.078 48.769 129.811 49.537 129.904 50.305C130.916 58.605 138.873 61.382 139.211 61.496C140.066 61.784 141.012 61.59 141.684 60.985L147.733 55.538C148.106 60.402 146.713 64.092 143.424 67.18C141.416 69.067 138.065 69.463 135.606 69.463C131.917 69.463 128.655 68.598 128.624 68.59C127.759 68.354 126.829 68.604 126.194 69.243L107.694 87.91C107.023 88.587 106.801 89.6 107.113 90.502ZM112.615 92.344C112.615 92.347 112.615 92.349 112.615 92.352C112.615 92.349 112.615 92.347 112.615 92.344ZM112.434 91.223C112.444 91.275 112.454 91.327 112.463 91.381C112.453 91.329 112.443 91.274 112.434 91.223ZM145.525 102.079L140.046 107.555C136.798 110.535 133.146 107.987 132.47 107.468L113.827 88.823L128.768 73.748L126.733 75.801L145.44 94.507C145.9 95.099 148.537 98.794 145.525 102.079ZM130.316 74.025C130.324 74.026 130.332 74.027 130.339 74.029C130.332 74.027 130.324 74.026 130.316 74.025ZM129.473 73.882C129.493 73.886 129.518 73.89 129.539 73.894C129.516 73.89 129.494 73.886 129.473 73.882Z" fill="white"/>
<path d="M113.162 11.002C76.7542 11.002 47.2402 40.516 47.2402 76.924C47.2402 110.441 72.2602 138.096 104.638 142.278V168.502C104.638 168.502 162.077 147.259 176.607 94.88C176.685 94.597 176.746 94.342 176.818 94.068C176.931 93.644 177.043 93.218 177.148 92.791C177.212 92.528 177.267 92.277 177.326 92.022C178.463 87.171 179.084 82.121 179.084 76.924C179.084 40.516 149.57 11.002 113.162 11.002ZM170.51 90.424L170.504 90.451L170.498 90.478L170.469 90.608C170.43 90.778 170.393 90.947 170.35 91.123C170.256 91.499 170.159 91.874 170.049 92.284L169.945 92.684C169.92 92.792 169.892 92.9 169.863 93.008C164.299 113.064 151.343 130.708 131.357 145.45C123.984 150.888 116.949 154.914 111.638 157.625V142.277V136.123L105.534 135.335C76.2912 131.558 54.2392 106.446 54.2392 76.923C54.2392 44.433 80.6712 18.001 113.161 18.001C145.649 18.001 172.083 44.433 172.083 76.923C172.084 81.432 171.555 85.974 170.51 90.424Z" fill="white"/>
<path d="M63.583 192.998C60.792 192.998 53.5939 192.378 47.0289 186.634C46.3149 186.009 45.3229 185.23 44.1749 184.328C34.749 176.922 15.1339 161.511 8.72195 125.785L8.64795 125.376L8.67195 124.962C8.71595 124.21 9.41795 117.398 20.3029 109.649C21.1799 109.032 24.2099 107.057 27.0589 107.057C28.7669 107.057 30.2529 107.745 31.2429 108.995C33.0469 111.272 45.909 127.493 45.909 127.493L46.1279 127.804C47.334 129.719 47.9749 133.518 44.882 136.235L38.9889 142.128C38.8139 144.24 38.791 149.388 42.075 153.227C45.767 157.544 49.582 159.016 51.3549 159.495L56.841 156.752C57.5169 156.369 59.7929 155.199 62.353 155.199C64.639 155.199 66.625 156.15 67.9459 157.877C70.0599 160.641 80.4499 173.507 80.5549 173.637L80.7099 173.844C81.8249 175.453 83.0429 178.993 80.5419 182.052C79.0949 183.821 74.0369 189.752 69.6699 191.83C68.063 192.593 65.958 192.997 63.583 192.998ZM15.7199 125.14C21.7709 157.823 39.806 171.994 48.5 178.824C49.726 179.788 50.785 180.62 51.639 181.367C56.5509 185.665 62.0229 185.999 63.583 185.999C65.094 185.999 66.165 185.745 66.664 185.508C68.774 184.503 72.3859 180.929 74.9479 177.834C74.9469 177.831 74.9449 177.828 74.9439 177.824C73.5499 176.097 64.5929 165 62.444 162.2C62.421 162.198 62.3909 162.197 62.3559 162.197C61.6199 162.197 60.5659 162.678 60.285 162.845L60.067 162.963L52.423 166.786L51.341 166.632C50.0079 166.443 43.0439 165.124 36.7579 157.776C30.3199 150.249 32.15 140.261 32.2309 139.839L32.4339 138.784L39.9619 131.257C37.8699 128.618 29.2909 117.799 26.4599 114.227C25.8489 114.464 24.9929 114.915 24.3409 115.369C17.5479 120.202 16.0079 124.161 15.7199 125.14Z" fill="#3A3A3A"/>
<path d="M87.443 108.54C83.991 108.54 81.378 107.942 81.268 107.917C80.387 107.712 79.685 107.048 79.433 106.18C79.181 105.312 79.416 104.374 80.05 103.73L87.434 96.214C86.397 92.369 84.098 90.857 82.775 90.289L74.48 97.548C73.86 98.09 73.012 98.292 72.216 98.089C71.418 97.886 70.772 97.302 70.487 96.53C66.639 86.073 72.967 78.237 73.238 77.908C76.964 73.723 81.771 71.549 87.2 71.549C89.98 71.549 92.362 72.123 93.863 72.601L110.629 55.836C109.616 52.406 108.172 44.302 114.172 37.365C117.315 33.731 121.465 31.809 126.174 31.809C131.011 31.809 134.838 33.838 134.999 33.925C135.254 34.062 135.483 34.242 135.676 34.458L135.862 34.665C136.752 35.658 136.707 37.173 135.758 38.111L128.955 44.84C129.744 47.719 131.983 49.375 133.42 50.17L141.642 42.767C142.296 42.177 143.214 41.975 144.055 42.237C144.897 42.498 145.538 43.182 145.745 44.039C147.868 52.848 146.223 59.645 140.712 64.822C138.142 67.236 134.359 68.46 129.47 68.46C126.681 68.46 124.146 68.053 122.631 67.746L106.127 84.399C106.856 87.58 107.758 95.019 102.688 101.973C99.555 106.269 94.283 108.54 87.443 108.54ZM87.247 103.539C90.898 103.554 95.878 102.825 98.647 99.027C103.591 92.246 101.085 84.813 100.976 84.5C100.663 83.598 100.885 82.585 101.558 81.907L120.058 63.24C120.692 62.601 121.622 62.351 122.488 62.587C122.518 62.595 125.781 63.46 129.47 63.46C131.928 63.46 135.281 63.064 137.288 61.177C140.576 58.089 141.969 54.399 141.597 49.535L135.548 54.982C134.876 55.586 133.931 55.781 133.075 55.493C132.737 55.379 124.78 52.602 123.768 44.302C123.674 43.534 123.941 42.766 124.492 42.222L129.539 37.229C128.558 36.991 127.404 36.808 126.174 36.808C122.915 36.808 120.15 38.096 117.953 40.634C112.302 47.17 115.761 55.427 115.796 55.51C116.201 56.45 115.992 57.543 115.268 58.266L96.268 77.266C95.527 78.008 94.403 78.206 93.451 77.767C93.433 77.759 90.716 76.547 87.201 76.547C83.203 76.547 79.797 78.083 77.076 81.113C76.729 81.555 73.794 85.485 74.317 91.045L80.521 85.617C81.077 85.131 81.819 84.917 82.548 85.028C82.885 85.08 90.839 86.417 92.63 96.564C92.771 97.36 92.518 98.174 91.951 98.751L87.247 103.539Z" fill="#F0C42E"/>
<path d="M87.9209 59.025L97.1579 69.307L100.698 65.766L87.4129 50.976L84.6779 54.925L77.4019 44.301L82.1339 39.569L92.7589 46.845L88.8089 49.579L103.6 62.865L107.141 59.324L96.8579 50.088L101.575 46.822L81.5329 33.098L70.9319 43.701L84.6559 63.742L87.9209 59.025Z" fill="#3A3A3A"/>
<path d="M126.147 68.28C124.734 68.134 123.507 67.924 122.63 67.746L120.596 69.799L139.302 88.505C139.762 89.097 142.399 92.792 139.386 96.077L133.908 101.553C130.66 104.533 127.007 101.985 126.332 101.466L107.69 82.821L106.127 84.399C106.372 85.469 106.632 87.029 106.682 88.884L122.899 105.102L123.072 105.26C124.593 106.52 127.39 107.985 130.522 107.985C132.75 107.985 135.147 107.244 137.375 105.161L142.893 99.645L142.995 99.542C148.007 94.184 145.252 87.843 143.094 85.239L126.147 68.28Z" fill="#3A3A3A"/>
<path d="M107.023 12C139.512 12 165.945 38.432 165.945 70.922C165.945 75.43 165.416 79.972 164.372 84.422L164.366 84.449L164.359 84.476L164.33 84.606C164.292 84.776 164.254 84.945 164.212 85.121C164.118 85.497 164.021 85.872 163.91 86.282L163.807 86.682C163.781 86.79 163.753 86.898 163.724 87.006C158.16 107.062 145.204 124.706 125.218 139.448C117.845 144.886 110.81 148.912 105.499 151.623V136.275V130.121L99.395 129.333C70.152 125.556 48.1011 100.444 48.1011 70.921C48.1021 38.432 74.5341 12 107.023 12ZM107.023 5C70.6161 5 41.1021 34.514 41.1021 70.922C41.1021 104.439 66.1221 132.094 98.5 136.276V162.5C98.5 162.5 155.939 141.257 170.47 88.878C170.548 88.595 170.608 88.34 170.68 88.066C170.794 87.642 170.905 87.216 171.011 86.789C171.074 86.526 171.13 86.275 171.188 86.02C172.326 81.169 172.946 76.119 172.946 70.922C172.945 34.514 143.432 5 107.023 5Z" fill="#3A3A3A"/>
</g>
<defs>
<clipPath id="clip0">
<rect width="171" height="195" fill="white" transform="translate(9 5)"/>
</clipPath>
</defs>
</svg>
