<svg width="180" height="202" viewBox="0 0 180 202" fill="none" xmlns="http://www.w3.org/2000/svg">
<g clip-path="url(#clip0)">
<path d="M135.133 61.767C143.254 61.767 150.078 56.225 152.033 48.718L157.5 49.532C157.607 49.548 157.715 49.556 157.82 49.556C158.871 49.556 159.791 48.786 159.951 47.716C160.127 46.538 159.312 45.44 158.135 45.265L152.594 44.44C152.596 44.394 152.598 44.349 152.598 44.302C152.598 44.12 152.592 43.94 152.584 43.76C152.584 43.76 152.133 37.242 151.51 34.523C150.889 31.804 148.975 31.227 148.975 31.227C139.205 29.015 129.203 28.789 126.6 28.789C123.997 28.789 123.442 30.121 123.442 30.121L120.292 35.117L120.282 35.114C120.206 35.236 120.136 35.359 120.063 35.482L120.036 35.525C118.534 38.105 117.669 41.101 117.669 44.302C117.668 53.948 125.488 61.767 135.133 61.767Z" fill="white"/>
<path d="M173.535 101.076V101.074L146.793 98.906L137.547 77.794C137.547 77.794 137.086 75.02 131.539 69.318C125.99 63.616 114.74 65.928 114.74 65.928C114.74 65.928 90.8539 70.397 82.9949 72.246C75.1349 74.096 74.8269 82.109 74.8269 82.109L74.1949 86.628L59.0169 83.687C58.8259 83.65 58.6359 83.632 58.4489 83.632C57.0419 83.632 55.7779 84.632 55.5009 86.061L48.0899 124.303C47.7759 125.923 48.8439 127.505 50.4649 127.819L101.661 137.742C101.776 137.764 101.891 137.766 102.007 137.775H102.009C101.281 137.879 100.718 137.74 100.718 137.74L91.3179 135.891L88.2359 152.996L64.6759 173.359C62.9749 174.72 61.8839 176.812 61.8839 179.16C61.8839 183.264 65.2099 186.59 69.3129 186.59C71.3479 186.59 73.1909 185.772 74.5329 184.445C74.5329 184.445 102.258 162.395 104.108 160.854C105.958 159.314 106.881 157.001 106.881 157.001C106.881 157.001 111.422 143.053 112.66 140.127C113.508 138.123 117.592 139.048 117.592 139.048L140.477 147.679L148.092 176.741C148.174 177.371 148.334 177.975 148.565 178.545H148.567C149.665 181.273 152.337 183.199 155.456 183.199C159.56 183.199 162.886 179.872 162.886 175.769C162.886 175.17 162.814 174.59 162.679 174.033C161.837 169.068 158.075 146.987 157.118 142.207C156.04 136.813 152.497 135.273 152.497 135.273C152.497 135.273 131.229 123.715 129.843 122.944C128.456 122.174 128.765 120.17 128.765 120.17L132.695 105.839L135.468 111.695C135.468 111.695 137.087 114.969 139.552 115.086L172.909 115.906C177.013 115.906 180.339 112.58 180.339 108.475C180.338 104.586 177.346 101.396 173.535 101.076ZM102.104 85.807L100.315 91.687L110.213 93.606L89.9989 89.689L90.5469 87.193L102.104 85.807ZM99.8549 131.28L54.5509 122.499L60.8209 90.146L73.3629 92.577L71.7449 104.144L71.1049 108.55C71.0999 108.576 71.0969 108.606 71.0929 108.632L71.0749 108.759H71.0769C71.0369 109.071 71.0139 109.388 71.0139 109.71C71.0139 113.814 74.3409 117.139 78.4439 117.139C82.5469 117.139 85.8729 113.814 85.8729 109.71C85.8729 109.392 85.8519 109.08 85.8119 108.773L88.7129 95.55L106.126 98.924L99.8549 131.28Z" fill="white"/>
<path d="M67.05 40.008H105.077C106.177 40.008 107.077 39.112 107.077 38.018C107.077 36.924 106.177 36.028 105.077 36.028H67.05C65.95 36.028 65.05 36.924 65.05 38.018C65.05 39.112 65.95 40.008 67.05 40.008Z" fill="white"/>
<path d="M80.0798 46.025C78.9798 46.025 78.0798 46.921 78.0798 48.015C78.0798 49.109 78.9798 50.005 80.0798 50.005H103.039C104.139 50.005 105.039 49.109 105.039 48.015C105.039 46.92 104.139 46.025 103.039 46.025H80.0798Z" fill="white"/>
<path d="M129.098 55.732C137.219 55.732 144.043 50.19 145.998 42.683L151.465 43.497C151.572 43.513 151.68 43.521 151.785 43.521C152.836 43.521 153.756 42.751 153.916 41.681C154.092 40.503 153.277 39.405 152.1 39.23L146.559 38.405C146.561 38.359 146.563 38.314 146.563 38.267C146.563 38.085 146.557 37.905 146.549 37.725C146.549 37.725 146.098 31.207 145.475 28.488C144.854 25.769 142.94 25.192 142.94 25.192C133.17 22.98 123.168 22.754 120.564 22.754C117.96 22.754 117.406 24.086 117.406 24.086L114.256 29.082L114.246 29.079C114.17 29.2 114.1 29.324 114.027 29.447L114 29.49C112.498 32.07 111.633 35.066 111.633 38.267C111.633 47.913 119.453 55.732 129.098 55.732Z" fill="#3A3A3A"/>
<path d="M167.5 95.041V95.039L140.758 92.871L131.512 71.759C131.512 71.759 131.051 68.985 125.504 63.283C119.955 57.581 108.705 59.893 108.705 59.893C108.705 59.893 84.8189 64.362 76.9599 66.21C69.0999 68.06 68.7919 76.073 68.7919 76.073L65.7099 98.109L65.0699 102.515C65.0649 102.541 65.0619 102.571 65.0579 102.597L65.0399 102.724H65.0419C65.0019 103.036 64.9789 103.353 64.9789 103.675C64.9789 107.779 68.3059 111.104 72.4089 111.104C76.5119 111.104 79.8379 107.779 79.8379 103.675C79.8379 103.357 79.8169 103.045 79.7769 102.738L84.5109 81.157L96.0679 79.771L94.2789 85.651L104.177 87.57C105.797 87.883 106.865 89.466 106.552 91.087L99.1399 129.33C98.8629 130.76 97.5989 131.76 96.1919 131.76C96.1199 131.76 96.0459 131.744 95.9719 131.739C95.2439 131.843 94.6809 131.704 94.6809 131.704L85.2809 129.855L82.1989 146.96L58.6389 167.323C56.9379 168.684 55.8469 170.776 55.8469 173.124C55.8469 177.228 59.1729 180.554 63.2759 180.554C65.3109 180.554 67.1539 179.736 68.4959 178.409C68.4959 178.409 96.2209 156.359 98.0709 154.818C99.9209 153.278 100.844 150.965 100.844 150.965C100.844 150.965 105.385 137.017 106.623 134.091C107.471 132.087 111.555 133.012 111.555 133.012L134.44 141.643L142.055 170.705C142.137 171.335 142.297 171.939 142.528 172.509H142.53C143.628 175.237 146.3 177.163 149.419 177.163C153.523 177.163 156.849 173.836 156.849 169.733C156.849 169.134 156.777 168.554 156.642 167.997C155.8 163.032 152.038 140.951 151.081 136.171C150.003 130.777 146.46 129.237 146.46 129.237C146.46 129.237 125.193 117.682 123.807 116.91C122.42 116.14 122.729 114.136 122.729 114.136L126.659 99.805L129.432 105.661C129.432 105.661 131.051 108.935 133.516 109.052L166.873 109.872C170.977 109.872 174.303 106.546 174.303 102.441C174.303 98.551 171.311 95.36 167.5 95.041Z" fill="#3A3A3A"/>
<path d="M95.971 131.739H95.973C96.046 131.745 96.12 131.76 96.193 131.76C97.6 131.76 98.864 130.76 99.141 129.33L106.553 91.087C106.866 89.466 105.798 87.884 104.178 87.57L83.964 83.653L82.678 89.515L100.091 92.889L93.82 125.243L48.516 116.464L54.786 84.111L67.328 86.542L68.16 80.592L52.982 77.65C52.791 77.613 52.601 77.595 52.414 77.595C51.007 77.595 49.743 78.595 49.466 80.024L42.055 118.268C41.741 119.888 42.809 121.47 44.43 121.784L95.626 131.707C95.74 131.729 95.855 131.73 95.971 131.739Z" fill="#F0C42E"/>
<path d="M101.042 31.982C101.042 33.077 100.142 33.972 99.0419 33.972H61.0149C59.9149 33.972 59.0149 33.076 59.0149 31.982C59.0149 30.888 59.9149 29.992 61.0149 29.992H99.0419C100.142 29.993 101.042 30.888 101.042 31.982Z" fill="#F0C52E"/>
<path d="M99.0039 41.98C99.0039 43.074 98.1039 43.97 97.0039 43.97H74.0439C72.9439 43.97 72.0439 43.074 72.0439 41.98C72.0439 40.885 72.9439 39.99 74.0439 39.99H97.0029C98.1039 39.99 99.0039 40.886 99.0039 41.98Z" fill="#F0C52E"/>
</g>
<defs>
<clipPath id="clip0">
<rect width="136" height="164" fill="white" transform="translate(42 23)"/>
</clipPath>
</defs>
</svg>
